<svg width="351" height="240" viewBox="0 0 351 240" fill="none" xmlns="http://www.w3.org/2000/svg">
<g filter="url(#filter0_bdd_118_1411)">
<path d="M8.46931e-10 20C3.79184e-10 8.9543 8.95431 -3.79184e-10 20 -8.46932e-10L330.9 -1.40125e-08C341.984 -1.44819e-08 350.955 9.01537 350.9 20.1L350.089 182.245C350.038 192.374 342.423 200.866 332.36 202.016L22.2709 237.455C10.4029 238.811 9.71978e-09 229.529 9.21394e-09 217.584L8.46931e-10 20Z" fill="url(#paint0_linear_118_1411)" fill-opacity="0.6" shape-rendering="crispEdges"/>
<path d="M1 20C1 9.50659 9.50659 1 20 1L330.9 1C341.43 1 349.952 9.5646 349.9 20.095L349.089 182.24C349.041 191.863 341.807 199.93 332.246 201.022L22.1574 236.461C10.8827 237.75 1 228.932 1 217.584L1 20Z" stroke="url(#paint1_linear_118_1411)" stroke-opacity="0.2" stroke-width="2" shape-rendering="crispEdges"/>
</g>
<defs>
<filter id="filter0_bdd_118_1411" x="-100" y="-100" width="550.9" height="437.587" filterUnits="userSpaceOnUse" color-interpolation-filters="sRGB">
<feFlood flood-opacity="0" result="BackgroundImageFix"/>
<feGaussianBlur in="BackgroundImageFix" stdDeviation="50"/>
<feComposite in2="SourceAlpha" operator="in" result="effect1_backgroundBlur_118_1411"/>
<feColorMatrix in="SourceAlpha" type="matrix" values="0 0 0 0 0 0 0 0 0 0 0 0 0 0 0 0 0 0 127 0" result="hardAlpha"/>
<feOffset dy="-20"/>
<feGaussianBlur stdDeviation="30"/>
<feComposite in2="hardAlpha" operator="out"/>
<feColorMatrix type="matrix" values="0 0 0 0 0.231373 0 0 0 0 0.278431 0 0 0 0 0.372549 0 0 0 0.6 0"/>
<feBlend mode="normal" in2="effect1_backgroundBlur_118_1411" result="effect2_dropShadow_118_1411"/>
<feColorMatrix in="SourceAlpha" type="matrix" values="0 0 0 0 0 0 0 0 0 0 0 0 0 0 0 0 0 0 127 0" result="hardAlpha"/>
<feOffset dy="20"/>
<feGaussianBlur stdDeviation="30"/>
<feComposite in2="hardAlpha" operator="out"/>
<feColorMatrix type="matrix" values="0 0 0 0 0.0627451 0 0 0 0 0.0784314 0 0 0 0 0.109804 0 0 0 0.6 0"/>
<feBlend mode="normal" in2="effect2_dropShadow_118_1411" result="effect3_dropShadow_118_1411"/>
<feBlend mode="normal" in="SourceGraphic" in2="effect3_dropShadow_118_1411" result="shape"/>
</filter>
<linearGradient id="paint0_linear_118_1411" x1="0" y1="0" x2="351" y2="240" gradientUnits="userSpaceOnUse">
<stop stop-color="#353F54"/>
<stop offset="1" stop-color="#222834"/>
</linearGradient>
<linearGradient id="paint1_linear_118_1411" x1="175.5" y1="-7.43183e-09" x2="175.5" y2="240" gradientUnits="userSpaceOnUse">
<stop/>
<stop offset="1" stop-opacity="0"/>
</linearGradient>
</defs>
</svg>
