<svg width="16" height="20" viewBox="0.4501953125 0.47705078125 15.099609375 19.0458984375" fill="none" xmlns="http://www.w3.org/2000/svg">
<path d="M3.00877 20H12.8473C14.8316 20 15.856 18.9571 15.856 16.9635V8.70328H8.93401C7.78034 8.70328 7.22658 8.14952 7.22658 6.99585V0H3.00877C1.03369 0 0 1.04292 0 3.04569V16.9635C0 18.9571 1.03369 20 3.00877 20ZM9.10937 7.35579H15.7637C15.7084 6.93124 15.4038 6.53438 14.9239 6.04522L9.8754 0.932164C9.41394 0.461467 8.99862 0.14767 8.57407 0.0922935V6.82049C8.58329 7.18043 8.75865 7.35579 9.10937 7.35579ZM4.34702 12.7919C3.95016 12.7919 3.66405 12.5058 3.66405 12.1366C3.66405 11.7674 3.95016 11.4813 4.34702 11.4813H11.5367C11.9151 11.4813 12.2104 11.7674 12.2104 12.1366C12.2104 12.5058 11.9151 12.7919 11.5367 12.7919H4.34702ZM4.34702 16.2529C3.95016 16.2529 3.66405 15.9668 3.66405 15.5976C3.66405 15.2284 3.95016 14.9423 4.34702 14.9423H11.5367C11.9151 14.9423 12.2104 15.2284 12.2104 15.5976C12.2104 15.9668 11.9151 16.2529 11.5367 16.2529H4.34702Z" fill="white" fill-opacity="0.6"/>
</svg>
