<svg width="60" height="60" viewBox="0 0 60 60" fill="none" xmlns="http://www.w3.org/2000/svg">
<g filter="url(#filter0_d_197_1438)">
<path d="M0 20.198C0 15.4312 3.3646 11.3271 8.03884 10.3922L48.0388 2.39223C54.2268 1.15465 60 5.88758 60 12.198V39.802C60 44.5688 56.6354 48.6729 51.9612 49.6078L11.9612 57.6078C5.77325 58.8454 0 54.1124 0 47.802V20.198Z" fill="url(#paint0_linear_197_1438)"/>
<path d="M0.5 20.198C0.5 15.6696 3.69637 11.7706 8.1369 10.8825L48.1369 2.88252C54.0154 1.70682 59.5 6.2031 59.5 12.198V39.802C59.5 44.3304 56.3036 48.2294 51.8631 49.1175L11.8631 57.1175C5.98458 58.2932 0.5 53.7969 0.5 47.802V20.198Z" stroke="url(#paint1_linear_197_1438)" stroke-opacity="0.6" style="mix-blend-mode:overlay"/>
</g>
<defs>
<filter id="filter0_d_197_1438" x="-30" y="-7.80536" width="120" height="115.611" filterUnits="userSpaceOnUse" color-interpolation-filters="sRGB">
<feFlood flood-opacity="0" result="BackgroundImageFix"/>
<feColorMatrix in="SourceAlpha" type="matrix" values="0 0 0 0 0 0 0 0 0 0 0 0 0 0 0 0 0 0 127 0" result="hardAlpha"/>
<feOffset dy="20"/>
<feGaussianBlur stdDeviation="15"/>
<feComposite in2="hardAlpha" operator="out"/>
<feColorMatrix type="matrix" values="0 0 0 0 0.0640972 0 0 0 0 0.0794837 0 0 0 0 0.108333 0 0 0 0.6 0"/>
<feBlend mode="normal" in2="BackgroundImageFix" result="effect1_dropShadow_197_1438"/>
<feBlend mode="normal" in="SourceGraphic" in2="effect1_dropShadow_197_1438" result="shape"/>
</filter>
<linearGradient id="paint0_linear_197_1438" x1="3" y1="-3.18769e-07" x2="44.7906" y2="81.0429" gradientUnits="userSpaceOnUse">
<stop stop-color="#34C8E8"/>
<stop offset="1" stop-color="#4E4AF2"/>
</linearGradient>
<linearGradient id="paint1_linear_197_1438" x1="0" y1="0" x2="34.0751" y2="72.2302" gradientUnits="userSpaceOnUse">
<stop stop-color="white"/>
<stop offset="1"/>
</linearGradient>
</defs>
</svg>
