<svg width="21" height="21" viewBox="0.4838714599609375 0.491455078125 20.032257080078125 20.01708984375" fill="none" xmlns="http://www.w3.org/2000/svg">
<path d="M20.6859 19.2165L16.8006 15.3548C18.3122 13.474 19.0457 11.0855 18.8503 8.68053C18.655 6.27551 17.5456 4.03674 15.7503 2.42456C13.9549 0.812384 11.6102 -0.0506628 9.19806 0.012882C6.78596 0.0764268 4.48987 1.06173 2.78193 2.7662C1.07398 4.47067 0.0839992 6.76474 0.0155402 9.17671C-0.0529189 11.5887 0.805349 13.9352 2.41387 15.7338C4.02238 17.5324 6.25888 18.6464 8.6635 18.8466C11.0681 19.0469 13.4581 18.3182 15.3419 16.8105L19.1958 20.6722C19.2931 20.7705 19.409 20.8486 19.5367 20.902C19.6644 20.9553 19.8014 20.9829 19.9398 20.983C20.0782 20.9832 20.2152 20.9559 20.343 20.9028C20.4708 20.8497 20.5868 20.7719 20.6844 20.6737C20.8735 20.4784 20.9794 20.2173 20.9797 19.9454C20.98 19.6736 20.8746 19.4122 20.6859 19.2165ZM9.46093 16.8045C8.00958 16.803 6.59126 16.3712 5.38533 15.5636C4.1794 14.7561 3.24001 13.609 2.68597 12.2676C2.13193 10.9262 1.98811 9.45056 2.27271 8.02739C2.5573 6.60421 3.25753 5.29739 4.28483 4.27217C5.31214 3.24696 6.62039 2.5494 8.04414 2.2677C9.46789 1.98601 10.9432 2.13283 12.2835 2.68961C13.6238 3.24638 14.7689 4.1881 15.574 5.39567C16.3791 6.60325 16.808 8.02245 16.8066 9.4738C16.8046 11.42 16.0296 13.2857 14.652 14.6605C13.2744 16.0352 11.4071 16.8065 9.46093 16.8045Z" fill="#FAFEFF"/>
</svg>
