<svg width="25" height="20" viewBox="0.41973876953125 0.022552490234375 24.1605224609375 19.95489501953125" fill="none" xmlns="http://www.w3.org/2000/svg">
<path d="M22.0075 2.11873C20.7237 0.920389 19.0219 0.188989 17.2096 0.0566496C15.3973 -0.0756902 13.5939 0.399756 12.1252 1.39711C10.5843 0.330042 8.66636 -0.153816 6.75764 0.0429695C4.84891 0.239755 3.09116 1.10257 1.83836 2.45766C0.585551 3.81274 -0.0692528 5.55945 0.00580754 7.34604C0.0808679 9.13262 0.880216 10.8264 2.24288 12.0862L9.76359 19.0995C10.3934 19.6766 11.2416 20 12.1252 20C13.0088 20 13.857 19.6766 14.4867 19.0995L22.0075 12.0862C23.4215 10.7616 24.2151 8.96999 24.2151 7.10247C24.2151 5.23495 23.4215 3.44329 22.0075 2.11873ZM20.2999 10.5302L12.7791 17.5322C12.6936 17.6127 12.5917 17.6766 12.4795 17.7201C12.3672 17.7637 12.2468 17.7862 12.1252 17.7862C12.0035 17.7862 11.8831 17.7637 11.7709 17.7201C11.6586 17.6766 11.5568 17.6127 11.4712 17.5322L3.95048 10.4964C3.00072 9.59247 2.46888 8.37825 2.46888 7.11375C2.46888 5.84925 3.00072 4.63502 3.95048 3.73112C4.91831 2.84147 6.22362 2.34263 7.58368 2.34263C8.94374 2.34263 10.249 2.84147 11.2169 3.73112C11.3295 3.8368 11.4634 3.92068 11.611 3.97793C11.7586 4.03517 11.9169 4.06464 12.0767 4.06464C12.2366 4.06464 12.3949 4.03517 12.5425 3.97793C12.6901 3.92068 12.824 3.8368 12.9366 3.73112C13.9044 2.84147 15.2097 2.34263 16.5698 2.34263C17.9298 2.34263 19.2351 2.84147 20.203 3.73112C21.1658 4.62317 21.7151 5.83082 21.7332 7.09535C21.7513 8.35988 21.2368 9.58073 20.2999 10.4964V10.5302Z" fill="url(#paint0_linear_240_1432)"/>
<defs>
<linearGradient id="paint0_linear_240_1432" x1="0.651929" y1="-0.670449" x2="21.9615" y2="22.2176" gradientUnits="userSpaceOnUse">
<stop stop-color="#37B6E9"/>
<stop offset="1" stop-color="#4B4CED"/>
</linearGradient>
</defs>
</svg>
