<svg width="23" height="23" viewBox="0.25286102294921875 0.41394996643066406 22.494277954101562 22.172100067138672" fill="none" xmlns="http://www.w3.org/2000/svg">
<path d="M20.9031 2.40165C19.6838 1.04329 18.0674 0.214225 16.346 0.064214C14.6247 -0.085797 12.9118 0.453135 11.5167 1.58366C10.0532 0.374112 8.23148 -0.174355 6.41853 0.0487072C4.60559 0.271769 2.93605 1.24979 1.74611 2.78582C0.556167 4.32186 -0.0657776 6.3018 0.00551612 8.32695C0.0768099 10.3521 0.836047 12.272 2.13033 13.7001L9.27365 21.6499C9.87182 22.304 10.6775 22.6706 11.5167 22.6706C12.356 22.6706 13.1616 22.304 13.7598 21.6499L20.9031 13.7001C22.2462 12.1986 23 10.1677 23 8.05086C23 5.93397 22.2462 3.90308 20.9031 2.40165ZM19.2812 11.9363L12.1379 19.8733C12.0566 19.9645 11.9598 20.0369 11.8532 20.0863C11.7466 20.1357 11.6322 20.1611 11.5167 20.1611C11.4012 20.1611 11.2868 20.1357 11.1802 20.0863C11.0736 20.0369 10.9768 19.9645 10.8956 19.8733L3.75225 11.8979C2.85014 10.8733 2.34499 9.49699 2.34499 8.06364C2.34499 6.63029 2.85014 5.25393 3.75225 4.22933C4.67151 3.22089 5.91131 2.65544 7.20312 2.65544C8.49493 2.65544 9.73474 3.22089 10.654 4.22933C10.7609 4.34913 10.8882 4.44421 11.0283 4.5091C11.1685 4.57399 11.3189 4.60739 11.4707 4.60739C11.6226 4.60739 11.7729 4.57399 11.9131 4.5091C12.0533 4.44421 12.1805 4.34913 12.2874 4.22933C13.2067 3.22089 14.4465 2.65544 15.7383 2.65544C17.0301 2.65544 18.2699 3.22089 19.1892 4.22933C20.1037 5.2405 20.6254 6.6094 20.6426 8.04279C20.6598 9.47617 20.1711 10.86 19.2812 11.8979V11.9363Z" fill="url(#paint0_linear_182_1412)"/>
<defs>
<linearGradient id="paint0_linear_182_1412" x1="23.2753" y1="22.5957" x2="8.79241" y2="1.62981" gradientUnits="userSpaceOnUse">
<stop stop-color="#37B6E9"/>
<stop offset="1" stop-color="#4B4CED"/>
</linearGradient>
</defs>
</svg>
